<?xml version="1.0"?><svg width="940" height="720" xmlns="http://www.w3.org/2000/svg">
 <title>olive leaf gold violte</title>
 <defs>
  <filter id="filter3327">
   <feGaussianBlur id="feGaussianBlur3329" stdDeviation="6.130778"/>
  </filter>
 </defs>
 <metadata id="metadata7">image/svg+xmlImperatores Romani2006.07.25Piotr Michal JaworskiPiotr Michal JaworskiPiotr Michal Jaworskipiomrex (AT-) konin.lm.pl</metadata>
 <g>
  <title>Layer 1</title>
  <g transform="rotate(0.195937, 454.115, 355.491)" id="layer1">
   <path stroke="#f2f1e6" id="svg_2" fill="#baa910" fill-rule="evenodd" stroke-width="1.000001px" filter="url(#filter3327)" d="m236.629898,17.722374c-43.100311,19.263927 -84.192719,45.925941 -77.023682,101.45369c55.663528,-3.439018 68.725098,-51.96257 77.023682,-101.45369zm434.814926,0c8.298462,49.491119 21.359985,98.014671 77.02356,101.45369c7.169128,-55.527748 -33.92334,-82.189762 -77.02356,-101.45369zm-545.200218,22.266319c-22.81881,43.636703 -39.826637,91.754944 -2.190781,130.716736c41.82383,-39.483734 24.17614,-86.286026 2.190781,-130.716736zm655.585167,0c-21.984985,44.43071 -39.671204,91.233002 2.15271,130.716736c37.635864,-38.961792 20.66626,-87.080032 -2.15271,-130.716736zm-559.843582,72.149429c-44.783997,14.192734 -88.303085,35.956161 -86.747742,91.98735c55.686447,2.986145 73.530762,-43.737717 86.747742,-91.98735zm464.06398,0c13.21698,48.249634 31.061401,94.973495 86.747864,91.98735c1.555298,-56.031189 -41.963867,-77.794617 -86.747864,-91.98735zm-609.348129,27.781387c-14.069256,47.689331 -21.563137,98.527542 22.67659,128.494308c33.465591,-47.755341 7.275551,-89.769608 -22.67659,-128.494308zm754.632309,0c-29.952271,38.724701 -56.142334,80.738968 -22.676697,128.494308c44.239624,-29.966766 36.745911,-80.804977 22.676697,-128.494308zm-656.546249,63.423935c-39.686584,26.366318 -76.291115,59.668701 -60.957909,113.266052c54.44239,-12.885223 60.123253,-62.991287 60.957909,-113.266052zm558.498581,0c0.834595,50.274765 6.515564,100.380829 60.958069,113.266052c15.33313,-53.597351 -21.271545,-86.899734 -60.958069,-113.266052zm-693.328476,45.191116c2.39468,49.946854 11.992489,100.401779 63.225555,111.907761c15.75531,-57.272614 -22.517456,-86.845978 -63.225555,-111.907761zm828.11998,0c-40.707947,25.061783 -78.942261,54.635147 -63.187073,111.907761c51.233154,-11.505981 60.792542,-61.960907 63.187073,-111.907761zm-697.287216,40.416946c-33.181412,35.195465 -61.912292,76.463684 -35.782974,125.036896c50.377182,-25.585815 45.459976,-75.83374 35.782974,-125.036896zm566.493088,0c-9.677002,49.203156 -14.59436,99.45108 35.782898,125.036896c26.129639,-48.573212 -2.601318,-89.841431 -35.782898,-125.036896zm-708.89464,64.000092c19.970716,45.209656 46.735544,87.9104 98.201303,77.664581c-5.791756,-59.382996 -51.648842,-71.0849 -98.201303,-77.664581zm851.296312,0c-46.552429,6.579681 -92.447998,18.281586 -98.239868,77.664581c51.465759,10.245819 78.268982,-32.454926 98.239868,-77.664581zm-691.944931,25.394318c-29.199951,39.032501 -53.32814,83.526367 -22.176956,128.576569c47.310165,-31.594421 37.051331,-80.883453 22.176956,-128.576569zm532.593552,0c-14.874451,47.693115 -25.171814,96.982147 22.13855,128.576569c31.151184,-45.050201 7.061279,-89.544067 -22.13855,-128.576569zm-496.080399,55.645203c-21.932632,44.154663 -37.952316,92.676422 0.461258,130.757904c41.016907,-40.442749 22.415695,-86.846558 -0.461258,-130.757904zm459.567093,0c-22.876953,43.911346 -41.516479,90.315155 -0.499817,130.757904c38.413757,-38.081482 22.432678,-86.603241 0.499817,-130.757904zm-640.90313,0.905426c24.842682,42.350403 56.153511,81.376465 106.118889,64.658722c-12.335709,-58.22641 -59.166138,-64.045135 -106.118889,-64.658722zm822.239372,0c-46.95282,0.613586 -93.821777,6.432312 -106.157471,64.658722c49.965576,16.717743 81.314697,-22.308319 106.157471,-64.658722zm-600.162231,51.035522c-7.654236,49.336182 -8.383942,100.768005 39.35733,123.761108c26.848633,-52.32782 -4.608948,-89.941711 -39.35733,-123.761108zm378.046387,0c-34.748474,33.819397 -66.205933,71.433289 -39.357117,123.761108c47.74115,-22.993103 47.011353,-74.424927 39.357117,-123.761108zm-512.95311,26.670105c-13.824715,0.155334 -28.374664,2.402893 -42.816505,5.185913c31.873512,36.555481 69.539223,68.515076 115.650734,41.980774c-15.397156,-37.590881 -42.419708,-47.508484 -72.834229,-47.166687zm643.747543,0c-28.723145,0.601685 -54.024658,11.284424 -68.72168,47.166687c46.111206,26.534302 83.777222,-5.425293 115.650757,-41.980774c-15.886108,-3.06134 -31.883911,-5.501038 -46.929077,-5.185913zm-451.764832,38.523682c17.077057,46.549133 41.095459,91.124878 93.089539,84.619995c-2.037567,-59.666016 -47.057617,-74.692566 -93.089539,-84.619995zm263.933105,0c-46.031982,9.927429 -91.090485,24.953979 -93.128082,84.619995c51.993988,6.504883 76.050812,-38.070862 93.128082,-84.619995zm-376.393906,23.336426c-19.680313,0.447144 -40.585678,7.911438 -61.111618,16.421814c37.784531,29.396362 80.43634,53.098083 120.993317,17.656616c-16.83992,-26.094055 -37.577393,-34.585449 -59.881699,-34.07843zm484.665146,0c-20.71814,0.610657 -39.943359,9.615234 -55.730835,34.07843c40.557129,35.441467 83.208984,11.739746 120.993286,-17.656616c-20.525696,-8.510376 -41.431213,-15.97467 -61.111572,-16.421814c-1.393921,-0.03186 -2.769775,-0.040833 -4.150879,0zm-395.957306,44.73822c-26.10495,0.529053 -51.06781,18.121277 -74.871262,37.412292c43.874405,17.143738 90.979782,27.410156 120.877914,-18.603271c-14.810394,-13.026917 -29.315186,-18.490967 -43.469788,-18.809021c-0.844574,-0.018982 -1.694794,-0.01709 -2.536865,0zm308.863556,0c-14.154602,0.318054 -28.621094,5.782104 -43.431458,18.809021c29.898315,46.013428 76.965271,35.747009 120.8396,18.603271c-24.571533,-19.913269 -50.385315,-38.019226 -77.408142,-37.412292zm-153.16333,16.380737c-8.915497,0 -16.142578,7.739197 -16.142731,17.286316c0,9.547119 7.227234,17.327454 16.142731,17.327454c8.915405,0 16.142639,-7.780334 16.142639,-17.327454c0,-9.547119 -7.227173,-17.286316 -16.142639,-17.286316zm-68.721832,14.364075c-28.528839,0.037415 -54.058289,21.333862 -78.061462,44.450439c45.070496,13.11145 92.834808,19.044189 118.994812,-29.510254c-14.350616,-10.58197 -27.965607,-14.957092 -40.93335,-14.940186zm137.443451,0c-12.967621,-0.016907 -26.544312,4.358215 -40.894714,14.940186c26.160065,48.554443 73.885864,42.621704 118.956238,29.510254c-24.002991,-23.116577 -49.532532,-44.413025 -78.061523,-44.450439z"/>
   <g id="svg_3" transform="matrix(1.22992, 0, 0, 1.31705, 294.262, 126.253)">
    <g id="svg_4" transform="matrix(0.50592, 0, 0, 0.50592, 182.655, 465.192)">
     <g id="svg_5" transform="matrix(0.573143, -0.904671, 1.00078, 0.44482, -415.047, 619.463)">
      <path stroke="#f2f1e6" id="svg_6" fill="#baa910" fill-rule="evenodd" stroke-width="1.363094px" d="m745.691589,-160.923889c15.540405,-82.642502 -46.435547,-108.371582 -111.469238,-127.192627c10.795288,66.193344 32.502197,130.407959 111.469238,127.192627z"/>
      <path stroke="#f2f1e6" id="svg_7" fill="#baa910" fill-rule="evenodd" stroke-width="1.363094px" d="m744.759705,-162.38385l-109.290588,-123.709839c13.272278,70.379868 34.371521,126.76062 109.290588,123.709839z"/>
     </g>
     <g id="svg_8" transform="matrix(1.06794, -0.0801205, 0.240445, 1.06847, -65.9312, -10.494)">
      <path stroke="#f2f1e6" id="svg_9" fill="#baa910" fill-rule="evenodd" stroke-width="1.363094px" d="m-59.408592,-154.174316c15.54047,-82.642487 -46.435555,-108.37146 -111.469246,-127.192535c10.795227,66.193237 32.502136,130.407867 111.469246,127.192535z"/>
      <path stroke="#f2f1e6" id="svg_10" fill="#baa910" fill-rule="evenodd" stroke-width="1.363094px" d="m-60.340534,-155.634216l-109.290539,-123.709778c13.272339,70.379761 34.371521,126.760437 109.290539,123.709778z"/>
     </g>
     <g id="svg_11" transform="matrix(0.647546, -0.853, 0.959612, 0.527804, -537.823, 514.566)">
      <path stroke="#f2f1e6" id="svg_12" fill="#baa910" fill-rule="evenodd" stroke-width="1.363094px" d="m680.87085,-191.096954c15.540405,-82.642456 -46.435547,-108.371521 -111.469238,-127.192627c10.795288,66.193314 32.502197,130.407837 111.469238,127.192627z"/>
      <path stroke="#f2f1e6" id="svg_13" fill="#baa910" fill-rule="evenodd" stroke-width="1.363094px" d="m679.938965,-192.557037l-109.290588,-123.709717c13.272278,70.379898 34.371521,126.760376 109.290588,123.709717z"/>
     </g>
     <g id="svg_14" transform="matrix(0.957678, 0.479351, -0.34202, 1.04041, 150.487, -161.529)">
      <path stroke="#f2f1e6" id="svg_15" fill="#baa910" fill-rule="evenodd" stroke-width="1.363094px" d="m-458.006104,164.873245c15.540466,-82.642426 -46.435669,-108.371498 -111.469238,-127.192539c10.795105,66.193295 32.502136,130.407871 111.469238,127.192539z"/>
      <path stroke="#f2f1e6" id="svg_16" fill="#baa910" fill-rule="evenodd" stroke-width="1.363094px" d="m-458.93811,163.413345l-109.290588,-123.709938c13.272339,70.379913 34.371582,126.760628 109.290588,123.709938z"/>
     </g>
     <g id="svg_17" transform="matrix(0.857054, -0.64217, 0.777588, 0.771226, -591.364, 267.296)">
      <path stroke="#f2f1e6" id="svg_18" fill="#baa910" fill-rule="evenodd" stroke-width="1.363094px" d="m447.536255,-247.891205c15.540405,-82.642456 -46.435669,-108.371613 -111.46936,-127.192627c10.795288,66.193359 32.502136,130.407959 111.46936,127.192627z"/>
      <path stroke="#f2f1e6" id="svg_19" fill="#baa910" fill-rule="evenodd" stroke-width="1.363094px" d="m446.604248,-249.351105l-109.290649,-123.7099c13.272461,70.379822 34.371582,126.760559 109.290649,123.7099z"/>
     </g>
     <g id="svg_20" transform="matrix(0.755076, 0.759463, -0.655643, 0.877249, 268.126, -190.625)">
      <path stroke="#f2f1e6" id="svg_21" fill="#baa910" fill-rule="evenodd" stroke-width="1.363094px" d="m-608.771118,428.542542c15.540405,-82.642426 -46.435608,-108.37146 -111.469238,-127.192505c10.795288,66.193268 32.502197,130.407867 111.469238,127.192505z"/>
      <path stroke="#f2f1e6" id="svg_22" fill="#baa910" fill-rule="evenodd" stroke-width="1.363094px" d="m-609.703064,427.082703l-109.290588,-123.70993c13.272339,70.379883 34.371643,126.76062 109.290588,123.70993z"/>
     </g>
     <g id="svg_23" transform="matrix(0.963548, -0.467438, 0.616708, 0.905043, -621.137, 68.8432)">
      <path stroke="#f2f1e6" id="svg_24" fill="#baa910" fill-rule="evenodd" stroke-width="1.363094px" d="m276.383118,-247.618973c15.540527,-82.642502 -46.435425,-108.371567 -111.469131,-127.192612c10.795288,66.193329 32.502197,130.407944 111.469131,127.192612z"/>
      <path stroke="#f2f1e6" id="svg_25" fill="#baa910" fill-rule="evenodd" stroke-width="1.363094px" d="m275.451233,-249.078903l-109.290482,-123.709915c13.272278,70.379913 34.371643,126.760574 109.290482,123.709915z"/>
     </g>
     <g id="svg_26" transform="matrix(0.601115, 0.886332, -0.806975, 0.740424, 304.607, -220.139)">
      <path stroke="#f2f1e6" id="svg_27" fill="#baa910" fill-rule="evenodd" stroke-width="1.363094px" d="m-656.462219,591.820129c15.540466,-82.642456 -46.435486,-108.371521 -111.469177,-127.192566c10.795288,66.193359 32.502197,130.407898 111.469177,127.192566z"/>
      <path stroke="#f2f1e6" id="svg_28" fill="#baa910" fill-rule="evenodd" stroke-width="1.363094px" d="m-657.394165,590.360229l-109.290466,-123.709839c13.272339,70.379883 34.371582,126.760498 109.290466,123.709839z"/>
     </g>
     <g id="svg_29" transform="matrix(1.03456, -0.276788, 0.434429, 1.00534, -608.74, -129.315)">
      <path stroke="#f2f1e6" id="svg_30" fill="#baa910" fill-rule="evenodd" stroke-width="1.363094px" d="m104.599083,-215.459091c15.540489,-82.64241 -46.435608,-108.371506 -111.469298,-127.192581c10.79529,66.193329 32.5022,130.407974 111.469298,127.192581z"/>
      <path stroke="#f2f1e6" id="svg_31" fill="#baa910" fill-rule="evenodd" stroke-width="1.363094px" d="m103.667076,-216.918991l-109.290521,-123.709854c13.27234,70.379883 34.37158,126.760605 109.290521,123.709854z"/>
     </g>
     <g id="svg_32" transform="matrix(0.746779, 0.767624, -0.665138, 0.870071, 125.857, -397.645)">
      <g id="svg_33" transform="matrix(0.915872, 0.283064, -0.296023, 1.00037, 202.003, -80.531)">
       <path stroke="#f2f1e6" id="svg_34" fill="#baa910" fill-rule="evenodd" stroke-width="1.363094px" d="m-670.5448,693.336304c15.540466,-82.642395 -46.435547,-108.371399 -111.469238,-127.192444c10.795166,66.193176 32.502197,130.407776 111.469238,127.192444z"/>
       <path stroke="#f2f1e6" id="svg_35" fill="#baa910" fill-rule="evenodd" stroke-width="1.363094px" d="m-671.476685,691.876526l-109.290649,-123.709961c13.272339,70.379822 34.371582,126.760681 109.290649,123.709961z"/>
      </g>
     </g>
     <g id="svg_36" transform="matrix(1.06011, -0.15198, 0.311976, 1.04981, -573.176, -289.857)">
      <path stroke="#f2f1e6" id="svg_37" fill="#baa910" fill-rule="evenodd" stroke-width="1.363094px" d="m-0.923256,-179.645248c15.540531,-82.642502 -46.435551,-108.371536 -111.469246,-127.192612c10.795288,66.193375 32.502075,130.407944 111.469246,127.192612z"/>
      <path stroke="#f2f1e6" id="svg_38" fill="#baa910" fill-rule="evenodd" stroke-width="1.363094px" d="m-1.855206,-181.105148l-109.29047,-123.709885c13.272339,70.379868 34.371582,126.760544 109.29047,123.709885z"/>
     </g>
     <g id="svg_39" transform="matrix(0.271022, 1.03609, -1.00774, 0.428823, 425.16, -343.1)">
      <path stroke="#f2f1e6" id="svg_40" fill="#baa910" fill-rule="evenodd" stroke-width="1.363094px" d="m-663.626587,889.160889c15.540405,-82.642517 -46.435608,-108.371521 -111.469238,-127.192627c10.795288,66.19342 32.502197,130.407959 111.469238,127.192627z"/>
      <path stroke="#f2f1e6" id="svg_41" fill="#baa910" fill-rule="evenodd" stroke-width="1.363094px" d="m-664.558533,887.70105l-109.290588,-123.709961c13.272339,70.379883 34.371582,126.76062 109.290588,123.709961z"/>
     </g>
     <g id="svg_42" transform="matrix(1.03814, 0.263036, -0.111168, 1.08953, -337.728, -516.595)">
      <path stroke="#f2f1e6" id="svg_43" fill="#baa910" fill-rule="evenodd" stroke-width="1.363094px" d="m-316.416138,14.842038c15.540466,-82.64243 -46.43573,-108.371518 -111.469299,-127.192571c10.795197,66.19334 32.502167,130.4079 111.469299,127.192571z"/>
      <path stroke="#f2f1e6" id="svg_44" fill="#baa910" fill-rule="evenodd" stroke-width="1.363094px" d="m-317.348083,13.382108l-109.290649,-123.709867c13.27243,70.379887 34.371613,126.760527 109.290649,123.709867z"/>
     </g>
     <g id="svg_45" transform="matrix(-0.0125355, 1.07087, -1.08526, 0.147144, 574.432, -341.583)">
      <path stroke="#f2f1e6" id="svg_46" fill="#baa910" fill-rule="evenodd" stroke-width="1.363094px" d="m-596.799072,1104.099731c15.540466,-82.642334 -46.435547,-108.371338 -111.469238,-127.192383c10.795288,66.192993 32.502197,130.407715 111.469238,127.192383z"/>
      <path stroke="#f2f1e6" id="svg_47" fill="#baa910" fill-rule="evenodd" stroke-width="1.363094px" d="m-597.731018,1102.639771l-109.290466,-123.709595c13.272217,70.379517 34.37146,126.760254 109.290466,123.709595z"/>
     </g>
     <g id="svg_48" transform="matrix(0.880588, 0.6095, -0.485195, 0.981844, -70.3676, -666.837)">
      <path stroke="#f2f1e6" id="svg_49" fill="#baa910" fill-rule="evenodd" stroke-width="1.363094px" d="m-533.699341,275.3638c15.540527,-82.642471 -46.435547,-108.371582 -111.469238,-127.192612c10.795166,66.193329 32.502258,130.407913 111.469238,127.192612z"/>
      <path stroke="#f2f1e6" id="svg_50" fill="#baa910" fill-rule="evenodd" stroke-width="1.363094px" d="m-534.631348,273.9039l-109.290405,-123.709946c13.272339,70.379913 34.37146,126.760605 109.290405,123.709946z"/>
     </g>
     <g id="svg_51" transform="matrix(0.102611, 1.06602, -1.06316, 0.262912, 572.881, -541.285)">
      <path stroke="#f2f1e6" id="svg_52" fill="#baa910" fill-rule="evenodd" stroke-width="1.363094px" d="m-631.147644,1020.817688c15.540466,-82.642395 -46.435547,-108.37146 -111.469238,-127.192444c10.795288,66.193237 32.502197,130.407837 111.469238,127.192444z"/>
      <path stroke="#f2f1e6" id="svg_53" fill="#baa910" fill-rule="evenodd" stroke-width="1.363094px" d="m-632.07959,1019.357849l-109.290527,-123.709839c13.272339,70.379822 34.371582,126.760498 109.290527,123.709839z"/>
     </g>
     <g id="svg_54" transform="matrix(0.738484, 0.775608, -0.674452, 0.862871, 122.126, -776.622)">
      <path stroke="#f2f1e6" id="svg_55" fill="#baa910" fill-rule="evenodd" stroke-width="1.363094px" d="m-615.831909,447.204987c15.540405,-82.642456 -46.435669,-108.371613 -111.469238,-127.192627c10.795227,66.193298 32.502075,130.407959 111.469238,127.192627z"/>
      <path stroke="#f2f1e6" id="svg_56" fill="#baa910" fill-rule="evenodd" stroke-width="1.363094px" d="m-616.763855,445.745087l-109.290588,-123.7099c13.272339,70.379883 34.371582,126.760498 109.290588,123.7099z"/>
     </g>
    </g>
    <g id="svg_57" transform="matrix(-0.50592, 0, 0, 0.50592, 583.799, 465.192)">
     <g id="svg_58" transform="matrix(0.573143, -0.904671, 1.00078, 0.44482, -415.047, 619.463)">
      <path stroke="#f2f1e6" id="svg_59" fill="#baa910" fill-rule="evenodd" stroke-width="1.363094px" d="m1129.397217,619.453003c15.540405,-82.642456 -46.435547,-108.371582 -111.469177,-127.192596c10.795227,66.193329 32.502136,130.407928 111.469177,127.192596z"/>
      <path stroke="#f2f1e6" id="svg_60" fill="#baa910" fill-rule="evenodd" stroke-width="1.363094px" d="m1128.46521,617.993103l-109.290344,-123.7099c13.272156,70.379883 34.371399,126.760559 109.290344,123.7099z"/>
     </g>
     <g id="svg_61" transform="matrix(1.06794, -0.0801205, 0.240445, 1.06847, -65.9312, -10.494)">
      <path stroke="#f2f1e6" id="svg_62" fill="#baa910" fill-rule="evenodd" stroke-width="1.363094px" d="m862.259705,-85.061913c15.540466,-82.642464 -46.435608,-108.371529 -111.469238,-127.192574c10.795227,66.193268 32.502136,130.407974 111.469238,127.192574z"/>
      <path stroke="#f2f1e6" id="svg_63" fill="#baa910" fill-rule="evenodd" stroke-width="1.363094px" d="m861.327759,-86.521736l-109.290588,-123.709953c13.2724,70.379852 34.371582,126.760612 109.290588,123.709953z"/>
     </g>
     <g id="svg_64" transform="matrix(0.647546, -0.853, 0.959612, 0.527804, -537.823, 514.566)">
      <path stroke="#f2f1e6" id="svg_65" fill="#baa910" fill-rule="evenodd" stroke-width="1.363094px" d="m1136.157471,544.7052c15.540405,-82.642487 -46.435669,-108.371552 -111.46936,-127.192596c10.795288,66.193268 32.502319,130.407928 111.46936,127.192596z"/>
      <path stroke="#f2f1e6" id="svg_66" fill="#baa910" fill-rule="evenodd" stroke-width="1.363094px" d="m1135.225464,543.2453l-109.290527,-123.70993c13.272461,70.379852 34.371582,126.76059 109.290527,123.70993z"/>
     </g>
     <g id="svg_67" transform="matrix(0.957678, 0.479351, -0.34202, 1.04041, 150.487, -161.529)">
      <path stroke="#f2f1e6" id="svg_68" fill="#baa910" fill-rule="evenodd" stroke-width="1.363094px" d="m439.457916,-248.61792c15.540527,-82.642487 -46.435516,-108.37149 -111.469269,-127.192566c10.795227,66.193359 32.502167,130.407898 111.469269,127.192566z"/>
      <path stroke="#f2f1e6" id="svg_69" fill="#baa910" fill-rule="evenodd" stroke-width="1.363094px" d="m438.526001,-250.077728l-109.290588,-123.710022c13.272339,70.379883 34.371552,126.760651 109.290588,123.710022z"/>
     </g>
     <g id="svg_70" transform="matrix(0.857054, -0.64217, 0.777588, 0.771226, -591.364, 267.296)">
      <path stroke="#f2f1e6" id="svg_71" fill="#baa910" fill-rule="evenodd" stroke-width="1.363094px" d="m1112.799927,306.048126c15.540405,-82.642334 -46.435669,-108.371399 -111.469238,-127.192459c10.795288,66.193344 32.502075,130.407822 111.469238,127.192459z"/>
      <path stroke="#f2f1e6" id="svg_72" fill="#baa910" fill-rule="evenodd" stroke-width="1.363094px" d="m1111.86792,304.588226l-109.290405,-123.709717c13.272339,70.379822 34.37146,126.760376 109.290405,123.709717z"/>
     </g>
     <g id="svg_73" transform="matrix(0.755076, 0.759463, -0.655643, 0.877249, 268.126, -190.625)">
      <path stroke="#f2f1e6" id="svg_74" fill="#baa910" fill-rule="evenodd" stroke-width="1.363094px" d="m147.948822,-226.574509c15.540405,-82.642441 -46.435616,-108.371536 -111.469311,-127.192581c10.795341,66.193329 32.502193,130.407913 111.469311,127.192581z"/>
      <path stroke="#f2f1e6" id="svg_75" fill="#baa910" fill-rule="evenodd" stroke-width="1.363094px" d="m147.016876,-228.034393l-109.290543,-123.709869c13.27235,70.379852 34.37159,126.760513 109.290543,123.709869z"/>
     </g>
     <g id="svg_76" transform="matrix(0.963548, -0.467438, 0.616708, 0.905043, -621.137, 68.8432)">
      <path stroke="#f2f1e6" id="svg_77" fill="#baa910" fill-rule="evenodd" stroke-width="1.363094px" d="m1057.079346,155.596069c15.540527,-82.642517 -46.435608,-108.371578 -111.469299,-127.192619c10.795288,66.193291 32.502197,130.407921 111.469299,127.192619z"/>
      <path stroke="#f2f1e6" id="svg_78" fill="#baa910" fill-rule="evenodd" stroke-width="1.363094px" d="m1056.147461,154.136169l-109.29071,-123.709929c13.272339,70.37985 34.371582,126.760511 109.29071,123.709929z"/>
     </g>
     <g id="svg_79" transform="matrix(0.601115, 0.886332, -0.806975, 0.740424, 304.607, -220.139)">
      <path stroke="#f2f1e6" id="svg_80" fill="#baa910" fill-rule="evenodd" stroke-width="1.363094px" d="m-17.769081,-172.733597c15.540461,-82.642578 -46.435501,-108.371567 -111.469231,-127.192642c10.795265,66.193314 32.502106,130.407974 111.469231,127.192642z"/>
      <path stroke="#f2f1e6" id="svg_81" fill="#baa910" fill-rule="evenodd" stroke-width="1.363094px" d="m-18.700972,-174.193436l-109.29056,-123.709946c13.272369,70.379776 34.37149,126.760605 109.29056,123.709946z"/>
     </g>
     <g id="svg_82" transform="matrix(1.03456, -0.276788, 0.434429, 1.00534, -608.74, -129.315)">
      <path stroke="#f2f1e6" id="svg_83" fill="#baa910" fill-rule="evenodd" stroke-width="1.363094px" d="m971.808838,23.299116c15.540405,-82.64242 -46.435547,-108.371496 -111.469299,-127.192541c10.795288,66.193302 32.502197,130.407881 111.469299,127.192541z"/>
      <path stroke="#f2f1e6" id="svg_84" fill="#baa910" fill-rule="evenodd" stroke-width="1.363094px" d="m970.876831,21.839216l-109.290527,-123.709845c13.2724,70.379875 34.371521,126.760504 109.290527,123.709845z"/>
     </g>
     <g id="svg_85" transform="matrix(0.746779, 0.767624, -0.665138, 0.870071, 125.857, -397.645)">
      <g id="svg_86" transform="matrix(0.915872, 0.283064, -0.296023, 1.00037, 202.003, -80.531)">
       <path stroke="#f2f1e6" id="svg_87" fill="#baa910" fill-rule="evenodd" stroke-width="1.363094px" d="m-115.755379,-125.558022c15.540466,-82.642464 -46.435555,-108.371529 -111.469185,-127.192574c10.795288,66.193298 32.502136,130.407898 111.469185,127.192574z"/>
       <path stroke="#f2f1e6" id="svg_88" fill="#baa910" fill-rule="evenodd" stroke-width="1.363094px" d="m-116.687256,-127.017868l-109.290482,-123.709961c13.272217,70.379944 34.371521,126.76062 109.290482,123.709961z"/>
      </g>
     </g>
     <g id="svg_89" transform="matrix(1.06011, -0.15198, 0.311976, 1.04981, -573.176, -289.857)">
      <path stroke="#f2f1e6" id="svg_90" fill="#baa910" fill-rule="evenodd" stroke-width="1.363094px" d="m904.647278,-48.546654c15.540466,-82.642479 -46.435547,-108.371544 -111.469299,-127.192589c10.795349,66.193283 32.502197,130.407936 111.469299,127.192589z"/>
      <path stroke="#f2f1e6" id="svg_91" fill="#baa910" fill-rule="evenodd" stroke-width="1.363094px" d="m903.715332,-50.006554l-109.290527,-123.709892c13.272339,70.379814 34.371521,126.760551 109.290527,123.709892z"/>
     </g>
     <g id="svg_92" transform="matrix(0.271022, 1.03609, -1.00774, 0.428823, 425.16, -343.1)">
      <path stroke="#f2f1e6" id="svg_93" fill="#baa910" fill-rule="evenodd" stroke-width="1.363094px" d="m-293.722626,-4.573321c15.540405,-82.642476 -46.435516,-108.371419 -111.469269,-127.192578c10.795288,66.193184 32.502197,130.407968 111.469269,127.192578z"/>
      <path stroke="#f2f1e6" id="svg_94" fill="#baa910" fill-rule="evenodd" stroke-width="1.363094px" d="m-294.654602,-6.033101l-109.290497,-123.709971c13.272308,70.379822 34.371552,126.760631 109.290497,123.709971z"/>
     </g>
     <g id="svg_95" transform="matrix(1.03814, 0.263036, -0.111168, 1.08953, -337.728, -516.595)">
      <path stroke="#f2f1e6" id="svg_96" fill="#baa910" fill-rule="evenodd" stroke-width="1.363094px" d="m623.418579,-212.054413c15.540466,-82.642456 -46.435547,-108.371552 -111.469238,-127.192535c10.795288,66.193237 32.502136,130.407867 111.469238,127.192535z"/>
      <path stroke="#f2f1e6" id="svg_97" fill="#baa910" fill-rule="evenodd" stroke-width="1.363094px" d="m622.486633,-213.514252l-109.290527,-123.7099c13.272278,70.379822 34.37146,126.760498 109.290527,123.7099z"/>
     </g>
     <g id="svg_98" transform="matrix(-0.0125355, 1.07087, -1.08526, 0.147144, 574.432, -341.583)">
      <path stroke="#f2f1e6" id="svg_99" fill="#baa910" fill-rule="evenodd" stroke-width="1.363094px" d="m-469.871887,180.362381c15.540405,-82.642456 -46.435608,-108.371407 -111.469299,-127.192448c10.795288,66.193226 32.502136,130.407795 111.469299,127.192448z"/>
      <path stroke="#f2f1e6" id="svg_100" fill="#baa910" fill-rule="evenodd" stroke-width="1.363094px" d="m-470.803894,178.902664l-109.290527,-123.709961c13.272339,70.379822 34.371521,126.760498 109.290527,123.709961z"/>
     </g>
     <g id="svg_101" transform="matrix(0.880588, 0.6095, -0.485195, 0.981844, -70.3676, -666.837)">
      <path stroke="#f2f1e6" id="svg_102" fill="#baa910" fill-rule="evenodd" stroke-width="1.363094px" d="m313.244568,-250.394455c15.540405,-82.642349 -46.435669,-108.371414 -111.469284,-127.19249c10.795227,66.193237 32.502197,130.407822 111.469284,127.19249z"/>
      <path stroke="#f2f1e6" id="svg_103" fill="#baa910" fill-rule="evenodd" stroke-width="1.363094px" d="m312.312561,-251.854355l-109.290512,-123.709763c13.272278,70.379761 34.371521,126.760422 109.290512,123.709763z"/>
     </g>
     <g id="svg_104" transform="matrix(0.102611, 1.06602, -1.06316, 0.262912, 572.881, -541.285)">
      <path stroke="#f2f1e6" id="svg_105" fill="#baa910" fill-rule="evenodd" stroke-width="1.363094px" d="m-404.358459,101.263878c15.540466,-82.642525 -46.435516,-108.371645 -111.469238,-127.192694c10.795258,66.193357 32.502228,130.408041 111.469238,127.192694z"/>
      <path stroke="#f2f1e6" id="svg_106" fill="#baa910" fill-rule="evenodd" stroke-width="1.363094px" d="m-405.290405,99.803864l-109.290527,-123.70985c13.272369,70.379879 34.371643,126.760509 109.290527,123.70985z"/>
     </g>
     <g id="svg_107" transform="matrix(0.738484, 0.775608, -0.674452, 0.862871, 122.126, -776.622)">
      <path stroke="#f2f1e6" id="svg_108" fill="#baa910" fill-rule="evenodd" stroke-width="1.363094px" d="m128.48497,-221.83847c15.540482,-82.642395 -46.435547,-108.37146 -111.469238,-127.192444c10.795229,66.193237 32.502193,130.407867 111.469238,127.192444z"/>
      <path stroke="#f2f1e6" id="svg_109" fill="#baa910" fill-rule="evenodd" stroke-width="1.363094px" d="m127.553017,-223.29837l-109.290464,-123.709747c13.272221,70.379822 34.371531,126.760437 109.290464,123.709747z"/>
     </g>
    </g>
    <path stroke="#f2f1e6" id="svg_110" fill="#baa910" fill-rule="nonzero" stroke-width="0.849474" stroke-linecap="round" stroke-miterlimit="4" stroke-dashoffset="0" d="m143.170593,391.965912a13.13198,13.13198 0 1 1 -26.263962,0a13.13198,13.13198 0 1 1 26.263962,0z"/>
   </g>
  </g>
 </g>
</svg>